<svg height="550pt" preserveAspectRatio="xMidYMid meet" viewBox="0 0 550 550" width="550pt" xmlns="http://www.w3.org/2000/svg"><g transform="matrix(.1 0 0 -.1 0 550)"><path d="m2490 5485c-200-41-330-92-515-203-33-20-64-40-70-44-54-42-124-103-192-170l-81-80-119 12c-244 24-506-27-722-142-171-90-325-214-427-343-21-27-42-52-45-55-14-10-111-173-142-238-47-96-97-248-116-356-16-85-13-406 4-491 44-225 123-405 260-589 99-135 275-290 413-366l42-24v-976c0-1064-2-1025 58-1148 38-80 149-188 237-232l70-35h1605 1605l66 33c120 60 211 159 270 292l24 55 3 1006 3 1006 42 23c282 156 534 470 626 780 12 41 26 86 31 100 30 87 41 424 19 560-45 282-199 567-418 778-120 116-332 246-481 296-178 60-376 84-553 66l-119-12-81 80c-69 68-118 111-193 172-7 5-62 38-124 74-147 85-287 137-465 172-91 17-425 17-515-1zm485-264c381-73 715-337 879-695 65-142 116-359 116-496 0-83 23-124 85-151 45-20 45-20 90 0 26 12 53 33 66 53 19 30 20 43 15 153-7 141-46 340-86 430-5 11-21 48-35 82s-34 78-45 98-20 38-20 42c0 3 51 3 113 0 278-15 520-122 709-314 157-159 243-308 301-517 19-71 22-106 22-281 0-198-1-201-33-310-53-177-125-308-239-435-99-112-216-201-340-260-42-20-70-41-87-67l-26-38v-627-628h-1710-1710v632 631l-26 34c-15 20-52 46-89 64-284 134-501 402-587 726-20 77-23 111-23 278 0 164 3 202 22 276 55 209 142 361 301 522 189 192 431 299 710 314 61 3 112 3 112 0 0-4-9-22-20-42s-32-64-46-98-31-75-39-92c-7-16-23-70-34-120-12-49-26-107-32-127-5-21-12-95-15-165-5-118-4-131 15-161 13-20 40-41 66-53 45-20 45-20 90 0 62 27 85 68 85 151 0 92 35 279 72 385 64 186 176 359 317 493 171 162 400 278 616 312 38 6 72 13 75 16 9 9 301-3 365-15zm1483-4508c-3-263-4-280-25-318-27-51-66-87-122-114l-45-21h-1516-1516l-45 21c-56 27-95 63-122 114-21 38-22 55-25 318l-3 277h1711 1711z"/><path d="m2015 3840c-3-5-16-10-27-10-19 0-99-36-167-75-29-16-151-136-151-148 0-5-11-23-25-41s-25-37-25-42c0-6-6-16-12-22-7-7-13-16-14-20 0-4-6-20-12-35-7-16-12-34-12-42s-4-16-9-20c-6-3-13-26-17-50-3-25-10-48-15-51-12-7-12-281 0-288 5-4 12-30 16-59 4-28 11-56 15-62 4-5 11-25 15-43 8-39 76-173 110-218 14-18 25-38 25-45 0-14 379-389 393-389 5 0 74-61 152-135 79-74 146-135 150-135s74-63 155-140 155-140 165-140 44 24 75 52c32 29 88 80 125 113s98 88 135 123c36 34 69 62 73 62 3 0 32 25 64 56 126 120 331 304 340 304 11 0 173 162 173 174 0 4 16 26 35 49 19 22 35 46 35 53s4 14 9 16c15 5 99 173 107 213 3 19 10 37 14 40 5 3 6 14 3 24s0 22 6 25c6 4 11 18 11 31s3 26 8 28c10 7-2 329-13 347-5 8-10 20-10 25-1 12-11 38-30 80-7 17-16 37-20 45-3 8-17 33-31 55-13 22-27 47-30 55-4 8-45 50-93 93-84 76-184 136-228 137-12 0-25 5-28 10-8 13-302 14-309 1-3-5-22-12-42-15-42-8-114-44-114-57 0-5-5-9-10-9-15 0-65-38-119-91-50-49-75-82-104-141-22-43-42-49-52-15-4 12-18 36-31 54-13 17-24 35-24 40 0 12-122 132-151 148-62 36-148 75-162 75-10 0-17 5-17 10 0 6-56 10-149 10-89 0-152-4-156-10z"/></g></svg>