<svg viewBox="0 0 25 25"><path d="m12.963 10.576-.208-3.984-.086-1.883s-.037-1.688-.195-1.825c-.2-.174-.428-.087-.428-.087s-.4.116-.429.377c-.025.222-.057.985-.057.985l-.086 1.534-.144 4.027.029 1.651.01.162-.358.239-.354.364s-.095.283-.054.49c.04.207.218.436.218.436s.018.09.102.176c.084.084.113.199.348.164a1.77 1.77 0 0 0 .432-.16.856.856 0 0 0 .26.203c.2.087.486.032.486.032s.089.039.204-.003c.114-.041.228 0 .314-.29.058-.195.075-.572.08-.795l2.51-1.657 1.213-.784s1.107-.667 1.12-.857c.018-.24-.153-.406-.153-.406s-.274-.304-.461-.231c-.161.062-.685.321-.685.321l-1.065.504zm11.703 1.667c0-1.905-1.28-6.5-3.717-8.65-1.568-1.384-4.385-2.497-4.562-2.56a12.207 12.207 0 0 0 -1.742-.47c-.725-.138-2.285-.27-3.051-.27-1.327 0-3.17.354-4.543 1.04a5.864 5.864 0 0 0 -.631.363c-1.56.689-3.729 2.9-4.732 4.62-.715 1.226-1.565 3.804-1.565 5.712 0 1.497.477 3.332.976 4.653.463 1.224 1.044 2.547 1.856 3.544.634.78 1.766 1.838 2.313 2.213.547.374 2.514 1.276 3.426 1.493.91.22 2.348.273 3.887.273 1.617 0 3.604-.225 4.396-.595s1.606-.719 2.286-1.171c.68-.453 1.73-1.491 2.251-2.089.994-1.139 1.61-2.331 2.196-3.757.503-1.219.956-2.947.956-4.349z" fill-rule="evenodd"/></svg>