<svg viewBox="0 0 7 24"><path d="m6.778 2.404c-.192-.658-.39-1.002-.78-1.425-.467-.503-1.778-.979-2.405-.979-1.118 0-1.988.492-2.59 1.253-.543.687-1.003 1.862-1.003 2.878 0 .807.299 1.637.47 2.157.215.649 1.064 1.23 1.553 1.524.254.152.53.255.81.325-.009.832.085 1.647.085 1.647s.158 2.401.158 4.074c0 1.674-.16 4.48-.16 6.012 0 1.533.092 3.579.297 3.877.206.298.924.11 1.14-.15.215-.261.212-5.913.212-5.913v-2.653l-.042-3.23v-2.293s.064-.95.031-1.454c.324-.11.476-.199.78-.371.356-.202.892-.709 1.104-1.125.34-.662.493-1.466.493-2.352 0-.68-.029-1.38-.153-1.802z"/></svg>